<?xml version="1.0" encoding="UTF-8"?><svg id="design" xmlns="http://www.w3.org/2000/svg" viewBox="0 0 480 540"><defs><style>.cls-1{fill:#ffa4da;}</style></defs><path class="cls-1" d="m105.52,233.22c-15,14.28-27.47,23.67-40.3,23.67-11.93,0-17.17-5.6-17.17-20.06v-46.99l67.77-10.84c42.11-6.87,59.82-20.42,59.82-45.36,0-26.21-24.04-48.07-65.42-48.07-25.12,0-44.28,9.76-44.28,27.11,0,10.66,5.42,16.45,14.64,16.45,11.57,0,21.51-11.21,24.4-31.81h.36v30.72c0,24.04-10.3,39.22-29.64,39.22-16.63,0-28.55-9.58-28.55-32.35,0-32.17,26.75-56.03,90.36-56.03,52.05,0,88.55,16.27,88.55,46.08,0,34.34-36.87,46.27-101.21,56.03l-55.12,8.31v2.71c55.84,9.76,113.5,17.17,127.95,17.17s25.84-11.38,27.11-26.39h.36v46.45c.72,20.42-7.23,27.65-20.6,27.65-16.45,0-68.31-16.63-99.04-23.67Z"/><path class="cls-1" d="m353.49,257.8c-55.66,0-89.46-41.02-89.46-89.46s33.8-89.46,89.46-89.46,89.46,41.03,89.46,89.46-33.79,89.46-89.46,89.46Zm0-46.99c54.58,0,86.75-13.19,86.75-42.47s-32.17-42.47-86.75-42.47-86.75,13.01-86.75,42.47,32.35,42.47,86.75,42.47Z"/><path class="cls-1" d="m105.52,450.1c-15,14.28-27.47,23.67-40.3,23.67-11.93,0-17.17-5.6-17.17-20.06v-46.99l67.77-10.84c42.11-6.87,59.82-20.42,59.82-45.36,0-26.21-24.04-48.07-65.42-48.07-25.12,0-44.28,9.76-44.28,27.11,0,10.66,5.42,16.45,14.64,16.45,11.57,0,21.51-11.21,24.4-31.81h.36v30.72c0,24.04-10.3,39.22-29.64,39.22-16.63,0-28.55-9.58-28.55-32.35,0-32.17,26.75-56.03,90.36-56.03,52.05,0,88.55,16.27,88.55,46.08,0,34.34-36.87,46.27-101.21,56.03l-55.12,8.31v2.71c55.84,9.76,113.5,17.17,127.95,17.17s25.84-11.39,27.11-26.39h.36v46.45c.72,20.42-7.23,27.65-20.6,27.65-16.45,0-68.31-16.63-99.04-23.67Z"/><path class="cls-1" d="m327.1,302.44c-25.12,0-44.28,9.76-44.28,27.11,0,10.66,5.42,16.45,14.64,16.45,11.57,0,21.51-11.21,24.4-31.81h.36v30.72c0,24.04-10.3,39.22-29.64,39.22-16.63,0-28.55-9.58-28.55-32.35,0-32.17,26.75-56.03,90.36-56.03,52.05,0,88.55,14.82,88.55,41.75,0,29.1-36.87,42.11-101.21,51.33l-16.26,2.35v7.59h106.63c7.59,0,9.94,4.16,9.94,14.28v28.55c0,18.98-7.05,30.36-16.45,30.36-8.67,0-23.67-9.4-39.58-21.14-35.06,10.12-72.83,23.86-103.92,23.86-11.93,0-17.17-8.31-17.17-23.13v-51.87h.36c1.26,18.98,11.57,29.46,33.61,29.46,43.92,0,101.03-14.82,130.48-27.65h-138.62v-7.95l41.93-6.69c42.11-6.69,59.82-18.98,59.82-41.75s-24.04-42.65-65.42-42.65Z"/></svg>