<?xml version="1.0" encoding="UTF-8"?><svg id="design" xmlns="http://www.w3.org/2000/svg" viewBox="0 0 480 540"><defs><style>.cls-1{fill:#ffea00;}</style></defs><path class="cls-1" d="m214.34,334.05c9.3,5.25,19,10.51,28.69,15.35v-146.7c0-54.56,10.51-96.58,25.86-133.76,41.63,17.38,152.76,65.06,152.76,97.39,0,23.44-60.21,65.87-86.89,82.44h61.43c32.33,0,42.84,23.03,42.84,44.05,0,80.82-61.02,178.22-122.04,178.22-31.93,0-88.91-37.58-143.87-67.49-25.46,32.73-62.24,63.45-95.37,63.45-25.46,0-36.77-17.78-36.77-44.86v-137.8c0-20.61,5.66-31.12,24.25-31.12,23.03,0,78.8,41.22,143.46,77.59,5.66-15.36,10.1-33.54,10.1-47.28,0-60.21-38.39-99.01-92.14-99.01-46.07,0-76.78,29.09-84.87,56.17h-.81V99.26c18.59-16.16,49.3-28.29,79.61-28.29,72.74,0,114.37,61.83,114.37,168.12,0,31.12-9.3,69.51-20.61,94.97Zm-122.04,90.93c35.16,0,61.02-10.1,75.17-24.65-34.75-18.99-67.89-33.95-93.35-33.95-15.76,0-27.08,7.28-27.08,27.48s18.19,31.12,45.26,31.12Zm156.8-176.2h76.78c8.89-5.25,18.59-18.18,18.59-27.48,0-25.06-53.75-45.67-94.16-48.49-.81,9.29-1.21,19.4-1.21,29.9v46.07Zm0,68.3v35.16c40.41,19.8,82.04,34.35,120.43,34.35,33.14,0,50.52-10.51,50.52-34.75,0-26.67-16.97-34.75-46.07-34.75h-124.87Z"/></svg>