<?xml version="1.0" encoding="utf-8"?>
<!-- Generator: Adobe Illustrator 27.1.1, SVG Export Plug-In . SVG Version: 6.00 Build 0)  -->
<svg version="1.1" id="design" xmlns="http://www.w3.org/2000/svg" xmlns:xlink="http://www.w3.org/1999/xlink" x="0px" y="0px"
	 viewBox="0 0 480 540" style="enable-background:new 0 0 480 540;" xml:space="preserve">
<style type="text/css">
	.st0{fill:#C0E3FF;}
</style>
<g>
	<path class="st0" d="M246.6,312c9.9-4.5,19.7-6,29.4-7c10.4-1.1,19.8,0.3,29.9,2.2c10.1,1.9,20.3,2,30,5.8
		c9.7,3.9,19.7,7.2,28.4,11.8c9.7,5.1,17.4,13,25.6,17.2c11.3,5.8,21.5,8.8,29.2,8.8c9.1,0,13.5-6,16.4-21.3c3.4-7,9.8-17.7,11.2-31
		c1.1-10.3,2.8-21.5,2.2-33c-0.6-11.5-6.3-22.2-9.2-31.7c-3.9-12.6-8.9-22.4-18-25.3c-9.2,3-18.1,7.2-27.1,11.2
		c-8.9,4-17.4,8.8-26.4,13c-8.9,4.2-17.4,9.1-26.6,12.7s-19.8,2-29.4,3.9c-9.5,1.8-18.9,7-28.9,6.2c-9.2-0.8-18.2-5.9-28-9.7
		c-13.4-2.6-21-12.3-20.5-23.1c0.5-10.8,8.8-21.6,22.5-22.4c9.2-1,21.2,0.7,34.3,1.4c11.1,0.6,23,3,34.4,2.9
		c12.2-0.1,24.3-2.5,34.3-5.4c12-3.5,22.2-12.1,26.7-23c-17.2-0.7-4,1.3,9.8-4.4c9.5-3.9,19.4-12.5,19.9-20.8
		c-1.9-0.3-5,0.7-6.8,0.9c-3.7,0.4,7.5-8.8,17.6-14.1c4.7-1.5,24-14.8,12.4-15.5c-10.6,0.9-21-0.4-31,0.2
		c-10.6,0.6-20.7,3.1-30.8,3.3c-10.5,0.2-20.5,1.8-30.9,1.7s-20.7,2.3-31,2.1c-10.3-0.2-20.6-6.2-30.8-6.5s-20.4-1.3-30.9-1.6
		c-10-0.3-20.4,0.8-31,0.7c-10-0.1-20.3,3.1-31,3.2c-9.9-0.8-18.6,1.5-27,4.7c-9.2,3.5-15.5,9-21.2,16.2
		c-5.9,7.4-12.1,14.4-12.2,24.3c-0.1,8.5,3.5,17.1,9,26.4c4.4,7.1,7.8,15.1,13.4,21.3c5.6,6.2,12.8,11.4,17.8,18
		c-8.8,1.4-20.8-2.2-31.8-7.9c-10.8-5.6-20.7-10.6-29.4-11l0,0c-6.9-0.4-17.7-2.9-28.1,1.3c-7.4,2.9-14.5,8.2-21.3,12.3
		c-0.6-3.7-1-6.7-1.1-8.9c7-0.1,28.9-15.8,26.5-24.1c-1.6-5.5-10.8-4-13.8-1.5c-4.3,3.6-9.2,11.3-12.4,16.9
		c0.3-8.3,1.3-17.4,2.4-26.3c0.2-1.7,0.6-3.4,1.2-5.1c1.2-3.3,2.5-6.5,4.1-9.5c0.3-0.5-3.4-1.5-3.5-1.1c-0.9,4-1.7,8.4-2.7,12.8
		c-0.5,2.3-0.8,4.6-1.2,6.9c-0.2,1.2-0.7,2.4-0.9,3.7c0.4-6-2.9-11.6-6.8-16.1c-3.7-4.3-7.9-8.3-12.9-3.7c-3.8,3.5-0.6,8.7,1.6,13
		c3.4,6.7,10.1,12,16.8,15.1c-0.8,5.4-2.7,10.6-2.7,16c0,2.3,0.4,7.8,0.8,14.5c-13.3,5.9-25.1-0.2-21.8,13
		c7.9,1.4,15.2,3.9,22.4,6.3c-0.1,6.5-0.4,12.8-0.5,17.3c-3.5-2.8-7.8-5.2-11-8.5c-3.8-3.9-10.6-10.8-13.2-2.9
		c-2.4,7.2,4.2,17.7,9,22.2c4.6,4.4,13.5,9.3,20.3,9.4c0.7,3.1,3,5.2,4.9,7.9c-1-7.4,0.1-22.2-0.9-36.5c-0.2-2.1-0.4-4.1-0.6-6.2
		c1.9,0.6,3.7,1.1,5.6,1.6c21.1,5.4,37,9.5,37,9.5c8.6,4.1,16.1,8.6,22.9,15s11.6,15,18.7,20.6c7,5.6,17.2,8,26.9,9.9
		c-5.4,7.9-13.1,15.5-19.8,22.4c-6.7,6.9-13.9,13.5-19.1,21.5c-5.8,9.2-5.8,18.4-6,26.9c-0.2,9.9,3.2,17.5,8.6,24.8
		s11.9,12.7,21,16.5c8.3,3.5,16.9,4.6,26.9,4.2c10.6,0.3,21,3.2,30.9,3.3c10.6,0.2,20.4-2.2,30.9-2.1c10.5,0,20.5,1.4,30.9,1.4
		s20.7-0.4,30.9-0.3c10.3,0.1,20.5,0.9,30.9,1.1c10.1,0.3,20.3,3.8,30.8,4.3c10,0.5,20.1,1.9,30.7,2.8c9.9,0.8,20.4-1,31,0.2
		c11.7-0.4-6.4-15.2-11-16.8c-9.9-5.5-21.8-12.3-18.2-11.8c1.8,0.2,3.1,0,5-0.2c-0.2-8.3-10.1-12.2-19.4-16.4
		c-13.6-6.1-27.5-12.3-10.3-12.5c-4.1-11-11.1-17.6-23-21.4c-9.9-3.2-22.4-0.5-34.6-1c-11.4-0.5-23.1-0.2-34.2,0
		c-13.1,0.3-25.4,0.1-34.6-1.2c-12-1.1-18.6-11.2-20.2-20.5C232.8,327.2,237,316.8,246.6,312z"/>
	<path class="st0" d="M67.1,299.3c0.4,1.9,1.3,1,0.5-0.4c-0.2-0.4-0.4-0.7-0.7-1C66.9,298.4,67,298.8,67.1,299.3L67.1,299.3z"/>
</g>
</svg>
