<?xml version="1.0" encoding="UTF-8"?><svg id="design" xmlns="http://www.w3.org/2000/svg" viewBox="0 0 480 540"><defs><style>.cls-1{fill:#0554e8;}</style></defs><path class="cls-1" d="m450.42,365.7c-3.4-7.01-5.24-14.71-10.59-19.91-5.37-5.21-12.39-8.76-18.44-13.3-5.18-3.89-10.04-8.38-15.52-11.86-6.38-4.05-12.64-8.45-19.19-12.2-7.18-4.11-16.27-4.78-23.57-8.69-1.9-1.02-2.53-4.38-1.74-6.59.24-.66-.64-1.22-.61-1.93.23-5.7,1.54-11.36,1.86-17.05.47-8.28-2.55-14.77-6.94-21.95-5.02-8.2-7.94-17.69-12.88-25.94-2.08-3.48-2.8-7.45-3.53-11.33-1.6-8.47-3.14-16.87-3.91-25.47-1.02-11.47-6.44-20.72-15.8-27.8-5.8-4.39-12.15-7.77-18.49-11.27-11.76-6.49-22.4-8.58-35.01-1.97-9.06,4.75-19.26,7.29-28.6,11.48-9.75,4.37-20.44,6.94-29.93,11.82-10.77,5.54-21.03,12.3-31.39,18.6-3.75,2.28-9.08,4.64-11.57,8.16-4.03,5.69-5.16,13.49-8.44,19.69-.9,1.69-1.48,2.5-3.46,2.08-9.22-1.96-18.55-3.31-27.83-4.93-11.82-2.07-23.4-6.06-35.32-7.41-12.56-1.43-25.78-3.32-38.37-1.38-5.92.91-12.04,3.93-17.1,7.33-4.32,2.91-7.5,7.14-8.66,12.69-.34,1.63-2.36,3.87-1.92,5.5,1.12,4.09,1.59,9.09,3.59,12.75,3.87,7.1,13.54,9.58,19.63,14.81,5.39,4.62,9.67,10.48,15.52,14.51,8.41,5.8,16.1,12.82,24.92,17.95,11,6.39,23.95,9.13,35.28,14.91,11.09,5.66,20.21,15.34,31.5,20.6,7.57,3.53,15.48,6.52,23.2,9.73,7.72,3.21,16.17,4.65,23.95,7.71,3.64,1.43,7.27,2.92,10.95,4.29,10.84,4.03,21.55,8.47,32.48,12.25,8.86,3.07,18.72,3.04,32.11,7.14,7.96,2.59,16.68,7.05,26.59,9.72,8.8,2.37,18.3,3.59,27.73,5.44,12.74,2.49,25.31,5.71,38.1,7.88,10.33,1.75,20.51,5.62,30.97,6.18,9.11.49,18.33-2.12,27.46-2.83,6.39-.5,12.29-2.05,17.78-5.71,3.55-2.37,4.58-5.54,6.31-9.63,2.42-5.71,1.3-9.08-1.12-14.08Zm-147.2-186.11c1.53.56,3.24,2.28,3.72,4.78,1.57,8.05,2.98,16.12,4.41,24.19.79,4.47,1.5,8.96,2.2,13.44.53,3.43-2.01,6.77-5.84,7.76-3.45.89-7.24-.87-8.3-4.13-.82-2.53-1.36-5.16-1.83-7.78-1.8-10-3.58-20-5.26-30.01-.9-5.36,4.78-10.15,10.9-8.25Zm27.83,167.39c-8.47,1.45-16.98.55-25.28-.84-16.25-2.73-32.39-6.14-47.97-11.74-4.7-1.44-9.47-2.67-14.08-4.36-9.18-3.37-18.3-6.93-27.39-10.54-7.36-2.92-14.69-5.91-21.94-9.07-4.48-1.95-8.84-4.2-13.16-6.48-6.91-3.65-13.94-7.15-20.56-11.28-6.62-4.13-13.18-8.5-18.27-14.62-.11-.14-.23-.27-.34-.41-4.44-5.72-3.13-9.42,3.91-11.15,7.36-1.8,14.72-.62,22.05.1,4.42.43,8.79,1.38,13.16,2.17,3.23.59,6.51,1.09,9.66,2,15.09,4.35,30.3,8.38,45.18,13.39,12.88,4.34,25.46,9.61,37.99,14.9,8.83,3.73,17.31,8.3,26.04,12.28,9.45,4.31,18.11,9.93,26.46,15.98,3.4,2.47,6.25,5.76,9.13,8.88,4.16,4.5,2.31,9.61-4.59,10.79Z"/></svg>