<?xml version="1.0" encoding="utf-8"?>
<!-- Generator: Adobe Illustrator 27.1.1, SVG Export Plug-In . SVG Version: 6.00 Build 0)  -->
<svg version="1.1" id="design" xmlns="http://www.w3.org/2000/svg" xmlns:xlink="http://www.w3.org/1999/xlink" x="0px" y="0px"
	 viewBox="0 0 480 540" style="enable-background:new 0 0 480 540;" xml:space="preserve">
<style type="text/css">
	.st0{fill:#FF66BB;}
</style>
<path class="st0" d="M341.3,250.9c-14.8,0-28.6,3.7-41.2,9.5c3-7.5,8.5-12.3,12.7-19.2l-0.8-0.5c7.2-11.6,14.3-23.5,24.4-32.6
	c8.9-10.7,6.5-17.2-3.4-23.8c-6.2-4.1-16.4-6.2-26.1-12.2c-7.3-4.6-12.5-13.3-20.2-20.4c-6.5-5.9-16.4-9.8-22.3-18.2
	c-5-7.2-7.2-17-11.3-26.5c-5.1-11.1-22.5-11.1-27.6,0c-4,9.5-7.3,18.5-12.3,25.8c-5.9,8.5-11.7,16.4-18.2,22.3
	c-7.7,7-16.1,12.2-23.4,16.8c-9.6,6-17.3,11.9-23.5,16.1c-9.9,6.6-13.2,8.2-4.4,19c6.2,5.6,10.2,13.5,15.4,20.1s12.3,12.4,16.3,19.8
	l-2.1,1.1c2.3,4.3,3.4,6.8,5.2,11.3c-10.7-3.3-20.5-2.5-29.9-3.6c-11.1-1.4-21-0.2-30.4,1.1c-11,1.5-19.6,5.5-28.2,9.9
	c-9.5,4.8-16.8,10.4-23.5,18c-6.7,7.6-13.1,15.1-17.1,24.7s-9.5,18.8-10.7,29.1c-1.1,10.2-0.8,21.1,0.9,31.2
	c1.7,10.2,6.3,19.9,10.7,29.2c4.4,9.3,12,16.2,19.2,23.6s13.7,15,23.4,19.4c8.8,4,19,4.3,30,5.3c9.5,0.9,19.8,4.5,30.8,2.6
	c9.4-1.5,18.8-6.4,29.3-10.1c6.9-3.7,6-11.2-1.1-14.5c-10.6-5.5-15.6-14.6-17.7-22.2c-2.6-9.3-1.5-20.3,3.6-28.2
	c5.6-8.7,16-14.5,24-15.2c8-0.8,16.8,5.5,19.9,19.1c-11.8-1.2-32.1-1.2-32.1,14.5c-0.4,15.7,19.5,16.2,31.3,15
	c1.8,11.7-1,22.5-5.9,29.6c-6.4,9.4-13.4,13.8-8.5,23.1c1.8,3.9,5.1,5,8.7,7.2c9.4,6.1,15.2,17,21.2,26.7c5.5,8.7,18.1,7.6,23.6-1.3
	c6.9-11,18.6-17.7,29.8-23.9c8-4.4,9.9-18,3.8-24.7c-9.1-10.1-16.7-21.5-15.1-35.5c11.8,1.2,29.7-0.5,29.3-16.2h-2.9
	c0-15.7-13.7-18.1-25.5-16.9c0-11.8,10.3-19.1,21.5-15.4c9.2,3.1,14.3,10.3,18.2,17.5c4.2,7.8,4,15.6,1.7,23.9s-5.6,15-14.2,19.3
	c-7,3.5-6.5,14.7,0.5,18.2c9.6,4.8,18.6,10,27.6,11.9c10.4,2.2,20.7,0.1,30.1-0.9c10.2-1.1,21-1.2,29.7-5.5
	c8.9-4.4,18-10.6,25.1-17.6c7-7,8.8-18.4,13.7-27.1s12.7-16.3,15.2-25.9c2.5-9.7,0.2-20.2-0.1-30s1.2-20.5-2.1-29.9
	s-8.5-18.4-15-26.3c-6-7.3-15.6-11.4-24.6-17c-7.9-4.8-16.7-8.3-27-11.3C361.1,257.5,352,252,341.3,250.9L341.3,250.9z"/>
</svg>
