<?xml version="1.0" encoding="UTF-8"?><svg id="design" xmlns="http://www.w3.org/2000/svg" viewBox="0 0 480 540"><defs><style>.cls-1{fill:#f22;}</style></defs><path class="cls-1" d="m372.94,281.43c16.21-27.01,60.4-93.79,42.23-104.11-18.66-10.8-66.78,76.61-76.11,92.81-22.1,37.81-70.71,126.69-119.82,101.16-42.23-22.1-4.42-94.28,13.75-134.55,12.28-27.99,52.05-98.7,31.92-111.47-29.95-19.15-88.39,64.33-117.85,111.47,24.55,17.68,38.3,49.1,36.83,87.9-1.96,68.26-49.6,142.9-104.59,116.87-14.24-6.88-30.94-21.61-32.9-55.49-2.46-36.83,14.73-82.5,31.43-116.87-11.3,3.44-22.59,9.33-34.87,18.17l-26.52-36.34c29.96-21.61,60.4-31.92,87.9-29.95,36.34-59.42,120.8-168.92,181.2-137,57.45,30.44,12.28,116.87-12.28,171.38-8.84,19.64-34.37,69.24-25.53,71.69,9.33,2.46,42.72-56.96,55-77.09,38.79-64.82,79.06-141.42,136.02-110.98,59.91,31.92-4.42,125.71-27.99,165.49-16.2,27.01-59.91,92.32-40.76,105.09,12.77,8.35,29.46-4.91,46.16-38.8l38.3,19.15c-24.06,48.62-72.68,92.32-117.36,61.38-51.07-35.36,2.94-114.91,35.85-169.9Zm-234.23,41.74c.49-21.12-3.93-37.32-14.24-46.65-22.59,42.72-48.62,119.82-25.53,125.22,18.17,4.42,38.3-42.72,39.77-78.57Z"/></svg>