<?xml version="1.0" encoding="utf-8"?>
<!-- Generator: Adobe Illustrator 27.1.1, SVG Export Plug-In . SVG Version: 6.00 Build 0)  -->
<svg version="1.1" id="design" xmlns="http://www.w3.org/2000/svg" xmlns:xlink="http://www.w3.org/1999/xlink" x="0px" y="0px"
	 viewBox="0 0 480 540" style="enable-background:new 0 0 480 540;" xml:space="preserve">
<style type="text/css">
	.st0{fill:#D6F267;}
</style>
<g id="jovMzo">
	<path class="st0" d="M309.4,0c0,9.9,0.7,18.4,0.7,26.9s2.5,17,2.3,26.9c-0.1,4.3,0,6.7,3.8,8.3c7.8,3.1,15.2,6.9,22.2,11.4
		s14.8,8.1,21,13.9c5.5,5.2,11.2,10.3,15.5,16.1c4.4,6,7.6,13,10.7,19.6s4.3,14.1,6.1,21.3s3.2,14.2,3.8,21.7
		c0.6,7.3,0.6,14.6,0.5,21.8s-0.8,14.5-1.7,21.7s-1.6,14.5-3.4,21.5c-1.7,7-6,13.2-8.6,20s-2.6,14.6-6,21.1
		c-0.9,1.6-3.1,4.5-2.3,6.2c3.6,7.1,6.3,14.2,9,21.5c2.7,7.4,6.3,14.4,8,22s1.8,15.4,2.6,23.2c0.7,7.8,4.3,15.5,4.1,23.4
		c-0.2,7.7-0.9,15.7-2,23.6c-1,7.2-5.2,13.5-7.3,20.1s-5.1,13-8.5,19.1s-6.6,12.3-11.2,17.7c-4.4,5.3-7.9,12-13.4,16.6
		s-12.8,6.1-19,9.8c-7,4.2-13.2,9.9-20.6,13.3c-3.1,1.4-6.3,1.9-6.3,5.3c0,8.9,4,16.6,4,23c0,15,6.4,15.4-2,23.3
		c-6.5,6.1-8.7,0.8-18.1,0.8c-6.3,0-11.3-1.6-16.1-1.6c0-15.5-0.8-16.8-0.7-19.9c0-2.7-0.1-6.8-0.1-21c-7.9,1.3-16.5,4.3-24.3,4.8
		s-15.8-3-23.7-3.4s-15.6,0.7-23.4-0.6c0,14.3-1,17.6-1,20.3c0,3-0.3,4.6-0.3,19.9c-6.2,0-10.3,2.3-16.3,2.3s-13-0.5-19.2-0.5
		c0-0.6,2.2-9.3,2.2-23.9c0-6.2-1.4-13.7-1.4-22.5c0-4.6-2-7.3-5.9-8.9c-8.1-3.3-16.9-5.4-24.2-10.1s-14.9-9.7-21.2-15.8
		c-5.2-5.1-8.4-11.9-12.4-17.6s-5.5-13-8.4-19.4s-7.4-12.1-9.2-19s-1.9-13.8-2.5-21c-0.6-7.4-1-14.6-0.9-21.8
		c0.1-7.3-1.2-14.8-0.3-22c0.9-7.2,2.7-14.4,4.4-21.5s6.4-13.1,9-20c2.5-6.7,4-13.9,7.4-20.4c0.9-1.6,1.3-5.4,0.5-7.1
		c-3.5-6.6-6.2-13.3-8.8-20.1s-4.6-13.8-6.3-21s-4.5-14.1-5.3-21.4s0.4-14.6,0.4-22.1s-1.9-14.7-1.2-22.1c0.8-7.8,0.6-15.8,2.6-22.9
		c2.1-7.5,5.2-14.8,8.5-21.6c3.4-6.8,10.2-11.6,14.9-17.6c4.7-5.8,8.4-12.7,14.3-17.8c5.9-5.1,13.2-7.1,20-11.2s12.8-9.7,19.8-13.5
		c1.4-0.8,5.4-1.5,5.4-2.9c0-8.7-0.9-14.4-0.9-18.8c0-7.6-1.4-11.2-1.4-18.8c0-4.4,1-18.5,1.2-18.8c6,0.1,11.8-1.8,18-1.9
		c6.1-0.1,11.4,1.7,17.6,1.9c0,15.1-0.1,19.8-0.1,24.6s-1.1,10.6-1.1,25.7c7.9-1.3,17.5-4.2,25.4-4.7s15.9,0.2,23.9,0.7
		c8,0.5,14.9,1.4,22.9,2.7c0-16-0.1-19.6-0.1-24.4c0-4.3-1.1-10-1.1-25.4c5.7,0.3,9.6-1.3,15.4-1.4C295.7-2.2,309.3-2.2,309.4,0z
		 M205.6,87.8c-0.1,1.8-2.8,2.2-2.8,3.9c0,6.8,0.7,13.7,0.6,20.6s2.4,13.7,2.2,20.6c-0.2,7.4-2.4,14.6-3.3,21.9
		c-0.8,7.3-2,14.5-3.6,21.6c-1.6,7.2-1.9,14.8-4.4,21.7c-2.5,6.8-4.7,14.1-8.2,20.7c-3.3,6.1-7.5,11.8-11.1,17.7s-8.6,11-12.4,16.8
		c-3.8,5.8-7.4,11.7-11.1,17.6c-1.6,2.6-2.4,4.2-0.4,6.9c3.7,5,6.9,10.4,10.5,15.4c4.1,5.7,8.4,11.1,12.1,17s5.1,13,8.2,19.2
		c3.1,6.2,8.9,11.2,11.3,17.7c2.4,6.5,1.8,13.9,3.5,20.7s2.4,13.4,3.2,20.3c0.8,7.5,2.8,14.9,3.1,22.5s-0.6,15.2-0.5,22.8
		s3.6,15.1,3.9,22.7c0.1,2.1-2.2,2.6-2.7,4.3c8.3,1.7,15.6,5.4,23.5,6s16.5,0.9,24.7,0.3c8.1-0.6,16.3-2.6,24.5-4.3
		c-0.2-7.6-2.5-15.4-2.7-22.9s2.7-15.1,2.9-22.7c0.1-7-2-14.1-1.2-21s4.8-13.4,6.3-20.1c1.5-6.8-0.6-14.6,1.6-21.2
		s6.5-12.5,9.4-18.9c2.9-6.3,5.6-12.8,9.2-18.9c4-6.6,10.6-11.5,14.9-18s7.9-13.3,12.3-19.7c2.1-3.1,2-6.3-0.2-9.1
		c-3.6-4.6-8.7-8.1-12.2-12.9c-4.1-5.7-5.1-13.3-8.7-19.2c-3.7-5.9-8.9-10.9-12-17.1s-4.9-12.9-7.4-19.4s-4.1-13.1-5.8-19.9
		c-1.7-6.6-1.9-13.4-2.8-20.4c-1-8.3-5.2-16.3-5.5-24.6c-0.4-8.3,3-16.9,2.6-25.2c-0.3-8.1-1.6-16.7-1.5-24.9
		c-7.8-1.6-16.1-3.2-23.8-3.7s-15.7,1.6-23.5,2.2S213.4,86.1,205.6,87.8L205.6,87.8z M129.6,236.1c4.6-5.6,10.1-8.6,13.8-14.4
		s6.7-12.7,9.7-18.9c3-6.4,3.3-13.9,5.4-20.5s5.6-13,6.9-19.9c1.3-6.8,2.3-13.9,2.9-20.9s-1-14-0.9-21.1s0.2-11.9-0.3-19
		c-7.2,3.9-12,7.3-17.7,12.3s-12.1,10.1-16.2,16.8c-4,6.5-6.8,13.7-8.9,21.7c-1.8,7.1-3.2,14.2-3.8,21.3s-0.7,14.5-0.1,21.7
		s2.3,14.2,3.8,21.3S127.5,229.1,129.6,236.1L129.6,236.1z M350.3,236.1c2.2-7.4,6.5-13,8.1-20.4c1.6-7.6,2-15.5,2.6-23.1
		c0.5-7.6-2-15.3-2.9-22.9c-0.8-7.5-0.6-15.3-3-22.8c-2.3-7.2-5.6-13.9-9.6-19.8c-4.1-6-10.4-10-16-14.8c-5.4-4.5-9.8-7.6-16.4-11.1
		c-0.5,7.1-0.3,12.1-0.3,19.1s-1.1,14.1-0.4,21c0.6,7,1.9,13.9,3.2,20.8c1.4,6.9,2.8,13.7,5,20.4s4.5,13.2,7.5,19.6
		c2.9,6.2,6.8,12.1,10.7,18.1S345.7,230.6,350.3,236.1L350.3,236.1z M167.3,447.8c0.9-6.6,3.9-12.4,3.9-19.6c-0.1-6.9-1.2-14-2-21.1
		c-0.8-6.9-4.4-13.5-5.8-20.4c-1.4-6.9-1.5-14.2-3.5-20.8c-2.1-6.9-4.5-13.6-7.1-19.8c-2.9-6.8-7.7-12.2-11.2-17.8
		c-4.1-6.6-6.8-10.8-11.4-14.9c-2.3,6.2-3.4,10.6-4.8,17s-3.7,12.5-4.3,19s-0.5,13-0.5,19.5c0,6.9,0.4,13.4,1.5,19.6
		c1.2,6.6,2.9,13,5.5,18.9c2.6,5.9,6.4,11.4,10.5,16.6s7,11.4,12.3,15.7C155.3,443.8,161.2,444.6,167.3,447.8L167.3,447.8z
		 M312.8,447.9c6.3-3.4,12.6-4.3,17.7-8.5c5.5-4.5,10-10.2,14-15.7s5.2-12.7,7.8-19.3c2.4-6.2,5.8-12.3,6.8-19.5
		c1.2-8.8,1.6-17.7,1.1-26.5s-3.5-17.2-5.2-25.9c-1.4-7.1-3-12.2-4.9-19.5c-4.6,5.5-7,9.9-10.7,15.6c-3.9,6-8.4,11.4-11.3,17.7
		s-5.3,13-7.4,19.7s-4.1,13.4-5.5,20.3s-2.5,13.8-3.1,20.8s-0.3,13.9-0.4,21C311.8,435.1,312.3,440.8,312.8,447.9L312.8,447.9z"/>
</g>
</svg>
