<?xml version="1.0" encoding="utf-8"?>
<!-- Generator: Adobe Illustrator 27.2.0, SVG Export Plug-In . SVG Version: 6.00 Build 0)  -->
<svg version="1.1" id="design" xmlns="http://www.w3.org/2000/svg" xmlns:xlink="http://www.w3.org/1999/xlink" x="0px" y="0px"
	 viewBox="0 0 800 800" style="enable-background:new 0 0 800 800;" xml:space="preserve">
<style type="text/css">
	.st0{fill:#80C8FF;}
</style>
<path class="st0" d="M603.4,305.5c-29.4,0-57.3,6.4-82.4,17.9c0.8-2.1,1.7-4.1,2.6-6.2c0.3-0.8,0.7-1.5,1-2.3c1-2.1,2-4.3,3-6.4
	c0.4-0.9,0.8-1.7,1.2-2.6c1-2.1,2.1-4.2,3.2-6.3c0.5-0.9,1-1.9,1.5-2.8c1.2-2.2,2.4-4.4,3.6-6.5c0.6-1,1.2-2,1.7-3
	c1-1.8,2.1-3.6,3.2-5.4c0.3-0.4,0.5-0.9,0.8-1.3c0,0,0,0,0,0c14.4-23.2,32-44.2,52.1-62.4c15.6-14.1,11.2-39.7-8.3-47.4
	c-70.8-27.7-128.3-84.5-160.1-154.2c-10.1-22.1-41.5-22.1-51.6,0C343,86.4,285.4,143.2,214.7,170.9c-19.6,7.6-23.9,33.3-8.3,47.4
	c24.9,22.4,45.8,49.1,61.6,78.9h0c0.7,1.3,1.3,2.6,2,3.9c0.5,1.1,1.1,2.1,1.6,3.2c0.6,1.3,1.3,2.6,1.9,3.9c0.8,1.7,1.6,3.5,2.4,5.2
	c0.4,0.8,0.8,1.6,1.1,2.5c1.1,2.5,2.2,5.1,3.2,7.7C154.2,262.5-3.3,362,0.1,503c-5.1,148.9,167.4,240.5,289.1,176.3
	c13.9-7.3,13.4-27.5-0.9-33.8c-54.7-24.5-49.1-104.1,9.5-123.5c22.3-7.4,45.2,9.4,45.2,32.8h-26.4c-17,0-30.8,13.8-30.8,30.8v0.6
	c0,17,13.8,30.8,30.8,30.8h26.4c1.7,15.4-1.7,30.2-8.2,43.9c-5.3,10.7-12.3,20.7-20.4,29.8c0,0,0,0-0.1,0.1
	c-8.3,9.3-9.2,22.2-3.7,32.2c2.5,4.6,6.2,8.5,11.2,11.3c2.8,1.5,5.5,3.2,8.2,4.9c18.7,12.1,34.7,28.6,46.7,47.8
	c0.2,0.3,0.5,0.6,0.7,1c11.4,16.6,36.3,16.3,47.1-1c13.7-22,32.6-40.4,54.9-52.7c15.9-8.8,19.6-30,7.5-43.5c0,0,0,0-0.1-0.1
	c-8-9-15-18.8-20.3-29.5c-6.6-13.7-10.1-28.7-8.3-44.2h25.1c17,0,30.8-13.8,30.8-30.8v-0.6c0-17-13.8-30.8-30.8-30.8h-25.1
	c0-23.4,23-40.2,45.2-32.8c57.6,19.1,64,96,12.6,122.1c-13.9,7-13.7,26.8,0.2,33.8C788.3,813.1,948,339.1,603.4,305.5L603.4,305.5z"
	/>
</svg>
