<?xml version="1.0" encoding="UTF-8"?><svg id="design" xmlns="http://www.w3.org/2000/svg" viewBox="0 0 800 800"><defs><style>.cls-1{fill:#fff;}</style></defs><path class="cls-1" d="m603.39,305.53c-29.4,0-57.3,6.42-82.38,17.91.84-2.07,1.69-4.13,2.58-6.18.33-.77.68-1.53,1.02-2.3.96-2.15,1.95-4.3,2.96-6.42.41-.86.82-1.72,1.24-2.58,1.03-2.12,2.1-4.22,3.18-6.31.49-.94.97-1.88,1.47-2.82,1.17-2.2,2.37-4.38,3.6-6.54.57-1,1.15-2,1.73-2.99,1.05-1.8,2.12-3.59,3.21-5.37.27-.43.52-.87.79-1.31,0,0,0,0-.01,0,14.38-23.2,31.95-44.21,52.12-62.41,15.59-14.07,11.23-39.7-8.34-47.36-70.76-27.67-128.32-84.46-160.13-154.25-10.09-22.13-41.52-22.13-51.61,0-31.82,69.79-89.38,126.58-160.13,154.25-19.57,7.65-23.93,33.29-8.34,47.36,24.85,22.41,45.75,49.09,61.58,78.88,0,0-.02,0-.02,0,.68,1.28,1.34,2.58,2,3.87.55,1.07,1.11,2.14,1.64,3.22.64,1.29,1.27,2.6,1.89,3.9.82,1.73,1.64,3.46,2.43,5.2.38.83.76,1.65,1.13,2.48,1.12,2.54,2.2,5.1,3.25,7.68C154.18,262.52-3.27,362.03.11,503.04c-5.05,148.85,167.36,240.53,289.08,176.33,13.85-7.3,13.43-27.45-.86-33.85-54.7-24.5-49.12-104.08,9.52-123.54,22.27-7.39,45.22,9.37,45.22,32.81h-26.37c-16.98,0-30.75,13.77-30.75,30.75v.56c0,16.98,13.77,30.75,30.75,30.75h26.37c1.74,15.4-1.66,30.25-8.18,43.86-5.26,10.72-12.3,20.7-20.43,29.76-.02.03-.05.05-.07.08-8.32,9.26-9.16,22.2-3.73,32.24,2.47,4.56,6.24,8.52,11.19,11.27,2.78,1.54,5.51,3.18,8.18,4.9,18.71,12.09,34.68,28.6,46.69,47.82.21.34.47.63.69.95,11.35,16.63,36.32,16.34,47.13-.96,13.72-21.97,32.62-40.4,54.87-52.73,15.85-8.78,19.57-30.03,7.46-43.5-.02-.02-.04-.05-.06-.07-8.05-8.97-15.05-18.85-20.29-29.45-6.61-13.71-10.07-28.68-8.33-44.18h25.1c16.98,0,30.75-13.77,30.75-30.75v-.56c0-16.98-13.77-30.75-30.75-30.75h-25.1c0-23.43,22.96-40.19,45.23-32.8,57.56,19.09,63.96,96.05,12.56,122.09-13.9,7.04-13.72,26.84.23,33.77,272.11,135.21,431.82-338.72,87.17-372.32Z"/></svg>