<?xml version="1.0" encoding="utf-8"?>
<!-- Generator: Adobe Illustrator 27.2.0, SVG Export Plug-In . SVG Version: 6.00 Build 0)  -->
<svg version="1.1" id="design" xmlns="http://www.w3.org/2000/svg" xmlns:xlink="http://www.w3.org/1999/xlink" x="0px" y="0px"
	 viewBox="0 0 800 800" style="enable-background:new 0 0 800 800;" xml:space="preserve">
<style type="text/css">
	.st0{fill:#FFFFFF;}
	.st1{fill:#FF0210;}
	.st2{fill:#2B9BD6;}
	.st3{fill:#FFF400;}
	.st4{fill:#FFC400;}
	.st5{fill:#FFDE00;}
</style>
<g>
	<path class="st0" d="M724,27.4h-12.8H400H88.8H76v12.8v388c0,112.8,71.6,213.2,178.2,249.9l58.3,24.5
		c28.2,11.8,52.1,32.9,67.2,59.5l2.3,4.1l3.7,6.5h7.4h6.7h6.7h7.4l3.7-6.5l2.3-4.1c15.2-26.5,39.1-47.6,67.2-59.5l58.3-24.5
		C652.4,641.4,724,541,724,428.2v-388V27.4L724,27.4z"/>
	<path class="st1" d="M711.2,167.3H555.6v122.1h15.9c24.8,0,45,20.1,45,45v30.2c0,21.3-14.9,39.2-34.8,43.8
		c-3.9,24.5-16.8,43.7-26.1,54.8v197.5c1.4-0.6,2.9-1.2,4.3-1.8c3-1.3,6.1-2.7,9-4.1c1.5-0.7,3-1.4,4.4-2.2c2.9-1.5,5.8-3,8.7-4.6
		c5.7-3.2,11.3-6.6,16.7-10.2c5.4-3.6,10.7-7.4,15.8-11.4c2.5-2,5.1-4,7.5-6.1s4.9-4.2,7.3-6.4c2.4-2.2,4.7-4.4,7-6.6
		c1.1-1.1,2.3-2.3,3.4-3.4c2.2-2.3,4.4-4.6,6.6-7c3.2-3.6,6.3-7.2,9.4-11s5.9-7.6,8.7-11.5c3.7-5.2,7.2-10.6,10.6-16
		c1.7-2.7,3.3-5.5,4.8-8.3c5.4-9.8,10.2-20,14.3-30.5c1.8-4.5,3.4-9.1,4.9-13.7c8-24.6,12.3-50.7,12.3-77.6V167.3z"/>
	<path class="st1" d="M581.7,382.4c6.2-3.6,10.3-10.2,10.3-17.8v-30.2c0-11.3-9.2-20.6-20.6-20.6h-15.9v31
		C568.8,353.3,578.5,366.7,581.7,382.4z"/>
	<path class="st2" d="M192.6,439L192.6,439v-0.1V167.3H88.8v260.9c0,15.1,1.4,30,4,44.5c0.6,3.2,1.2,6.4,1.9,9.6s1.5,6.4,2.3,9.5
		c0.8,3.1,1.7,6.3,2.6,9.4c0.9,3.1,1.9,6.2,3,9.2c1.6,4.6,3.3,9.1,5.1,13.6c0.6,1.5,1.2,3,1.9,4.4c1.3,3,2.6,5.9,4,8.8
		c3.5,7.2,7.3,14.3,11.5,21.1c2.5,4.1,5.1,8.2,7.8,12.1c0.9,1.3,1.8,2.6,2.8,3.9c1.2,1.6,2.3,3.2,3.5,4.8c1.2,1.5,2.3,3.1,3.5,4.6
		c3.5,4.5,7.2,8.8,11,13.1c2.1,2.4,4.3,4.7,6.6,7c6.7,6.9,13.9,13.4,21.4,19.5c3.5,2.9,7.1,5.6,10.8,8.3V439z"/>
	<path class="st2" d="M296.3,337.3c31.6,7.3,54.4,32.9,69.3,61.7c7.2,13.8,13.7,27.7,19.2,39.9c-13.4-39.9-31.4-95.7-37.1-124.5
		c-1-3.9-1.6-8-1.7-12.1c0-0.5,0-1.1,0-1.5c0,0,0,0,0-0.1s0,0,0-0.1c0-0.5,0-1,0-1.5c0.3-9.3,2.9-18.1,7.3-25.7
		c13.7-32.9,42.3-76.1,46.7-82.8v-23.4H296.3V337.3z"/>
	<path class="st2" d="M385.1,536.9H364c-4.7,0-8.6-3.8-8.6-8.6c0-4.7,3.8-8.6,8.6-8.6h-22.3v67.1
		C369.1,576.7,385.1,536.9,385.1,536.9z"/>
	<path class="st2" d="M355.4,486.4c0-4.7,3.8-8.6,8.6-8.6h3.8c0,0-26.1-72-71.5-74v176.4c5.5,3.4,12.3,6.5,20.7,8V438.2h24.7v56.9
		H400v-0.2h-36C359.2,494.9,355.4,491.1,355.4,486.4z"/>
	<path class="st2" d="M374.9,626.2c0-0.5,0-1.1,0.1-1.6c0-0.5-0.1-1.1-0.1-1.6c0-5.5,3.8-19.4,8.5-34.5
		c-8.9,14.9-22.1,28.1-41.7,31.5v19.7H317v-20.3c-8.4-1.7-15.2-4.9-20.7-8.8v71.3l21.3,8.9c18.4,7.7,34.9,18.9,48.8,32.8
		c0,0,0,0,0,0c4.2,4.2,8.2,8.7,11.9,13.4c0.8,1,1.5,2,2.3,3c1.7,2.2,3.3,4.5,4.8,6.8c0.4,0.6,0.8,1.2,1.2,1.8
		c1.5,2.3,2.9,4.7,4.3,7.1l2.3,4.1h6.7v-82.3C396.2,671.8,374.9,639.1,374.9,626.2z"/>
	<path class="st3" d="M76,27.4v400.8c0,112.8,71.6,213.2,178.2,249.9l58.3,24.5c28.2,11.8,52.1,32.9,67.2,59.5l2.3,4.1l3.7,6.5h28.3
		l3.7-6.5l2.3-4.1c15.2-26.5,39.1-47.6,67.2-59.5l58.3-24.5C652.4,641.4,724,541,724,428.2V27.4H76z M88.8,40.2h622.3v114.2H88.8
		V40.2z M711.2,428.2c0,26.9-4.3,53-12.3,77.6c-1.5,4.6-3.1,9.2-4.9,13.7c-4.1,10.5-8.9,20.7-14.3,30.5c-1.6,2.8-3.2,5.6-4.8,8.3
		c-3.3,5.5-6.8,10.8-10.6,16c-2.8,3.9-5.7,7.7-8.7,11.5c-3,3.7-6.1,7.4-9.4,11c-2.1,2.4-4.3,4.7-6.6,7c-1.1,1.1-2.3,2.3-3.4,3.4
		c-2.3,2.3-4.6,4.5-7,6.6c-2.4,2.2-4.8,4.3-7.3,6.4s-5,4.1-7.5,6.1c-5.1,4-10.4,7.8-15.8,11.4c-5.4,3.6-11,7-16.7,10.2
		c-2.9,1.6-5.8,3.1-8.7,4.6c-1.5,0.7-2.9,1.5-4.4,2.2c-3,1.4-6,2.8-9,4.1c-6.1,2.6-12.3,5.1-18.7,7.2l-22.8,9.6l-36,15.1
		c-30.9,13-56.7,35.8-73.4,64.9l-2.3,4.1h-13.4l-2.3-4.1c-1.4-2.4-2.8-4.8-4.3-7.1c-0.4-0.6-0.8-1.2-1.2-1.8
		c-1.5-2.3-3.2-4.6-4.8-6.8c-0.7-1-1.5-2-2.3-3c-3.7-4.7-7.7-9.2-11.9-13.4c0,0,0,0,0,0c-13.9-13.9-30.5-25.1-48.8-32.8l-21.3-8.9
		l-17.9-7.5l-19.6-8.2c-6.4-2.2-12.6-4.6-18.7-7.2c-3-1.3-6.1-2.7-9-4.1c-1.5-0.7-3-1.4-4.4-2.2c-2.9-1.5-5.8-3-8.7-4.6
		c-5.7-3.2-11.3-6.6-16.7-10.2c-2.7-1.8-5.4-3.6-8-5.5c-3.9-2.8-7.8-5.8-11.6-8.8c-7.5-6.1-14.6-12.6-21.4-19.5
		c-2.2-2.3-4.4-4.6-6.6-7c-3.8-4.2-7.5-8.6-11-13.1c-1.2-1.5-2.4-3-3.5-4.6c-1.2-1.6-2.4-3.2-3.5-4.8c-0.9-1.3-1.8-2.6-2.8-3.9
		c-2.7-4-5.3-8-7.8-12.1c-4.1-6.9-8-13.9-11.5-21.1c-1.4-2.9-2.7-5.8-4-8.8c-0.6-1.5-1.3-3-1.9-4.4c-1.8-4.5-3.6-9-5.1-13.6
		c-1.1-3.1-2.1-6.1-3-9.2c-0.9-3.1-1.8-6.2-2.6-9.4c-0.8-3.1-1.6-6.3-2.3-9.5s-1.3-6.4-1.9-9.6c-2.6-14.5-4-29.4-4-44.5V167.3h622.3
		V428.2z"/>
	<path class="st1" d="M254.8,438.9c-0.8,9.2,0.5,18.3,1.9,24.7h39.5v-24.7H254.8z"/>
	<path class="st1" d="M221,438.9l4.5-7.5c-4.2-10.1-7.3-21.7-7.7-34.5l-25.3,42l-0.1,0.1l0.1,0v24.6h52.8c-5-6-11.2-14.3-16.4-24.7
		H221z"/>
	<path class="st1" d="M251.3,341.2c8-3.9,16.9-6.1,26.3-6.1c2,0,3.9,0.1,5.8,0.2l12.8-21.3h0.1v-24.7H192.6v24.7h75.1L251.3,341.2z"
		/>
	<path class="st1" d="M523.4,407.1c-6.9-2.6-13.5-3.6-19.7-3.2v59.7h24.7v-54h0.3C527.1,408.6,525.3,407.8,523.4,407.1z"/>
	<path class="st1" d="M503.7,289.4v48c6.1-1.5,12.5-2.3,19.3-2.3c1.8,0,3.6,0.1,5.4,0.3v-21.6h27.2v-24.4H503.7z"/>
	<path class="st1" d="M317,619.4v20.3h24.7V620c-3.1,0.5-6.3,0.8-9.7,0.8C326.4,620.8,321.5,620.3,317,619.4z"/>
	<path class="st1" d="M341.7,438.2H317v150.1c3.5,0.6,7.2,1,11.3,1.1c4.7,0.1,9.2-0.8,13.4-2.4v-67.1h116.7v66.7
		c4.5,1.9,9.4,2.9,14.6,2.8c3.6,0,6.9-0.4,10.1-0.9V438.2h-24.7v56.9H341.7V438.2z"/>
	<path class="st1" d="M458.3,619.7v19.9H483v-20c-4.2,0.8-8.8,1.2-13.8,1.2C465.4,620.8,461.8,620.4,458.3,619.7z"/>
	<path class="st4" d="M418.1,433.8c13.2-39.4,30-91.8,35.4-119.4c1-3.9,1.6-8,1.7-12.1c0-0.5,0-1.1,0-1.5c0,0,0,0,0-0.1s0,0,0-0.1
		c0-0.5,0-1,0-1.5c-0.3-9.3-2.9-18.1-7.3-25.7c-14.9-35.8-47.3-83.6-47.3-83.6v285C403.1,468.5,409.4,452.8,418.1,433.8z"/>
	<path class="st4" d="M400.6,678.4c0,0,25.7-38,25.7-52.2c0-0.5,0-1.1-0.1-1.6c0-0.5,0.1-1.1,0.1-1.6c0-5.5-3.8-19.4-8.5-34.5
		c-14.1-23.6-17.3-51.6-17.3-51.6V678.4z"/>
	<path class="st4" d="M527.8,370.8c-68.1-11.7-104.2,86.7-110.9,107h-33.1c-6.7-20.3-42.9-118.7-110.9-107
		c-33.1,5.7-44.7,55.9-15.9,102.5l2.2-0.9c0,0-1.2-3.4-2.4-8.7c-1.4-6.4-2.8-15.5-1.9-24.7c1.2-12.9,6.6-25.9,22.3-31.8
		c6.7-2.5,13.1-3.5,19.1-3.2c45.4,2,71.5,74,71.5,74H364c-4.7,0-8.6,3.8-8.6,8.6h90.4c0-4.7-3.8-8.6-8.6-8.6h-4.4
		c0,0,25.9-71.4,70.9-74c6.2-0.4,12.8,0.6,19.7,3.2c1.9,0.7,3.6,1.5,5.2,2.5c29.1,16.5,12.7,62.8,12.7,62.8l2.2,0.9
		C572.5,426.7,560.9,376.5,527.8,370.8z"/>
	<path class="st5" d="M581.7,382.4c-3.2-15.7-12.9-29.1-26.1-37.6c-8-5.2-17.3-8.5-27.2-9.4c-1.8-0.2-3.6-0.3-5.4-0.3
		c-6.8,0-13.2,0.8-19.3,2.3c-31.3,7.5-53.9,32.9-68.8,61.5c-6.2,11.9-11.9,23.9-16.9,34.8c-8.7,19-15,34.7-17.5,41v-285
		c0,0-0.2,0.3-0.6,0.9c-4.4,6.7-33,49.8-46.7,82.8c-4.4,7.6-7,16.4-7.3,25.7c0,0.5,0,1,0,1.5c0,0,0,0,0,0.1s0,0,0,0.1
		c0,0.5,0,1,0,1.5c0.1,4.2,0.7,8.2,1.7,12.1c5.6,28.8,23.6,84.6,37.1,124.5c-5.5-12.2-12-26.1-19.2-39.9
		c-14.9-28.8-37.8-54.3-69.3-61.7c-4.2-1-8.5-1.6-12.9-1.9c-1.9-0.1-3.8-0.2-5.8-0.2c-9.3,0-18.3,2.2-26.3,6.1
		c-19.7,9.6-33.6,29.5-33.6,52.4c0,1.1,0,2.1,0.1,3.2c0.4,12.8,3.5,24.4,7.7,34.5c1.1,2.6,2.2,5.1,3.4,7.5
		c5.2,10.3,11.3,18.7,16.4,24.7c5.6,6.7,9.9,10.3,9.9,10.3l1.7-0.7c-28.9-46.5-17.3-96.8,15.9-102.5c68.1-11.7,104.2,86.7,110.9,107
		h33.1c6.7-20.3,42.9-118.7,110.9-107c33.1,5.7,44.7,55.9,15.9,102.5l1.7,0.7c0,0,4.4-3.8,10.2-10.8c9.3-11.1,22.2-30.3,26.1-54.8
		c0.8-4.7,1.2-9.6,1.2-14.7C582.8,389.8,582.4,386,581.7,382.4z"/>
	<path class="st4" d="M458.3,586.5c-26.8-10.9-42.3-49.6-42.3-49.6h21.1c4.7,0,8.6-3.8,8.6-8.6h-90.4c0,4.7,3.8,8.6,8.6,8.6h21.1
		c0,0-15.9,39.8-43.4,50c-4.2,1.6-8.7,2.5-13.4,2.4c-4-0.1-7.8-0.5-11.3-1.1c-8.4-1.5-15.2-4.6-20.7-8c-12-7.6-17.4-17.1-17.4-17.1
		h-2.7c3.6,19.8,22.3,42.1,56.9,42.1c30.4,0,55.1-42.7,60.3-68.3h14.2c5.2,25.6,29.9,68.3,60.3,68.3c34.6,0,53.3-22.2,56.9-42.1
		h-2.7c0,0-11.6,20.7-39.2,25.3c-3.2,0.5-6.5,0.8-10.1,0.9C467.7,589.4,462.9,588.3,458.3,586.5z"/>
	<path class="st5" d="M468,605.2c-30.4,0-55.1-42.7-60.3-68.3h-7.1c0,0,3.2,27.9,17.3,51.6c8.7,14.6,21.6,27.6,40.5,31.3
		c3.4,0.7,7.1,1,10.9,1c5,0,9.6-0.4,13.8-1.2c44.8-8.2,44.6-56.4,44.6-56.4h-2.7C521.3,583,502.7,605.2,468,605.2z"/>
	<path class="st5" d="M393.5,536.9c-5.2,25.6-29.9,68.3-60.3,68.3c-34.6,0-53.3-22.2-56.9-42.1h-2.7c0,0-0.1,30.8,22.7,47.4
		c5.5,4,12.3,7.1,20.7,8.8c4.5,0.9,9.5,1.4,14.9,1.4c3.4,0,6.6-0.3,9.7-0.8c19.5-3.3,32.8-16.5,41.7-31.5
		c-4.7,15.1-8.5,29.1-8.5,34.5c0,0.5,0,1.1,0.1,1.6c0,0.5-0.1,1.1-0.1,1.6c0,12.9,21.3,45.6,25.1,51.3c0.4,0.6,0.6,0.9,0.6,0.9
		V536.9H393.5z"/>
	<path class="st5" d="M355.4,528.4h90.4c0-4.7-3.8-8.6-8.6-8.6H364C359.2,519.8,355.4,523.6,355.4,528.4z"/>
	<path class="st5" d="M355.4,486.4c0,4.7,3.8,8.6,8.6,8.6h73.2c4.7,0,8.6-3.8,8.6-8.6H355.4z"/>
	<path class="st1" d="M174.9,106.7h13.7c7.2,0,12.7-1.6,16.6-4.7c3.9-3.2,5.8-8.6,5.8-16.2c0-7-1.9-12.2-5.8-15.5
		c-3.9-3.3-9-5-15.5-5h-28.2V130h13.4V106.7z M174.9,76.5h12.6c3.2,0,5.7,0.7,7.4,2.2c1.8,1.4,2.7,3.8,2.7,7.2
		c0,3.4-0.9,5.8-2.6,7.4c-1.8,1.6-4.3,2.3-7.5,2.3h-12.6V76.5z"/>
	<path class="st1" d="M240.7,124.3c4.9,5,12,7.6,21.2,7.6c9.3,0,16.3-2.5,21.2-7.6c6.5-6.2,9.8-15.1,9.8-26.7
		c0-11.9-3.3-20.8-9.8-26.7c-4.9-5-12-7.6-21.2-7.6c-9.3,0-16.3,2.5-21.2,7.6c-6.6,5.9-9.8,14.8-9.8,26.7
		C230.8,109.2,234.1,118.1,240.7,124.3z M249.1,80.7c3.2-4,7.5-5.9,12.8-5.9s9.6,2,12.8,6c3.1,4,4.7,9.6,4.7,16.8
		c0,7.3-1.6,12.9-4.7,16.9c-3.2,4-7.4,5.9-12.8,5.9s-9.6-2-12.8-5.9c-3.2-4-4.8-9.6-4.8-16.9C244.3,90.3,245.9,84.7,249.1,80.7z"/>
	<polygon class="st1" points="360.9,118.4 328.9,118.4 328.9,65.3 315.4,65.3 315.4,130 360.9,130 	"/>
	<path class="st1" d="M389.9,124.3c4.9,5,12,7.6,21.2,7.6c9.2,0,16.3-2.5,21.2-7.6c6.5-6.2,9.8-15.1,9.8-26.7
		c0-11.9-3.3-20.8-9.8-26.7c-4.9-5-12-7.6-21.2-7.6c-9.3,0-16.3,2.5-21.2,7.6c-6.6,5.9-9.8,14.8-9.8,26.7
		C380,109.2,383.3,118.1,389.9,124.3z M398.3,80.7c3.2-4,7.5-5.9,12.8-5.9s9.6,2,12.8,6c3.1,4,4.7,9.6,4.7,16.8
		c0,7.3-1.6,12.9-4.7,16.9c-3.2,4-7.4,5.9-12.8,5.9s-9.6-2-12.8-5.9c-3.2-4-4.8-9.6-4.8-16.9C393.5,90.3,395.1,84.7,398.3,80.7z"/>
	<polygon class="st1" points="476.9,84 503.4,130 516.9,130 516.9,65.3 504.3,65.3 504.3,110.5 478.5,65.3 464.3,65.3 464.3,130 
		476.9,130 	"/>
	<rect x="540.6" y="65.3" class="st1" width="13.4" height="64.7"/>
	<path class="st1" d="M592.8,116.7h23.8l4.2,13.3h14.7l-22.9-64.7h-15.3L574.2,130h14.1L592.8,116.7z M604.8,80.1l8.1,25.5h-16.4
		L604.8,80.1z"/>
</g>
</svg>
