<?xml version="1.0" encoding="UTF-8"?><svg id="design" xmlns="http://www.w3.org/2000/svg" viewBox="0 0 1000 1150"><defs><style>.cls-1{fill:#f52021;}.cls-2{fill:#ff9d00;}.cls-3{fill:#863525;}.cls-4{fill:#9b3c2c;}.cls-5{fill:#722c20;}.cls-6{fill:#e8e8e8;opacity:.15;}</style></defs><g><path class="cls-5" d="m463.37,897.37l140.57,95.55c30.36,18.63,39.87,58.35,21.24,88.71h0c-18.63,30.37-58.36,39.87-88.72,21.24l-140.56-95.54c-30.36-18.63-39.87-58.35-21.24-88.71h0c18.63-30.36,58.35-39.87,88.71-21.24Z"/><circle class="cls-6" cx="570.2" cy="1047.89" r="64.5"/></g><g><path class="cls-3" d="m217.53,798.7l685.16,130.66c34.89,7.16,57.38,41.25,50.22,76.15h0c-7.16,34.9-41.25,57.39-76.15,50.23l-685.15-130.66c-34.9-7.16-57.39-41.25-50.23-76.15h0c7.16-34.9,41.25-57.39,76.15-50.23Z"/><circle class="cls-6" cx="889.73" cy="992.55" r="64.5"/></g><g><g id="QDx1ed"><path class="cls-1" d="m588.8,939.86c-15,0-29-3-44-3-21-1-42,2-63,0-18-1-35-8-52-14-16-4-31-6-47-11-15-5-29-13-41-23-8-2-16-5-23-9-30-17-56-39-76-66-9-5-15-12-19-21-2-5-3-10-6-14-1-1-1-3-1-4-1-2-4-4-5-6-1-4-4-7-5-11-1-3-2-5-3-7-2-6-4-12-5-19-1-12-4-24-5-36-2-24,2-48,4-72,0-9,6-17,6-26,1-13,4-26,7-39,1-9,6-16,11-24,3-17,7-35,13-51,3-5,7-9,10-14,4-8,2-16,3-24,2-11,8-20,8-31,1-15,2-28,6-43v-9c-2-8-4-15-4-23,0-21-1-41-6-61,13,5,26,13,33,26,17,14,32,30,41,49,8,16,17,29,24,44,5,10,4,22,7,32,6,15,10,31,12,47,5-26,9-51,12-77,1-9-3-18-3-27-1-16,1-32-1-49-3-13,1-25,0-38,0-3-2-6-2-9,0-5-1-9-2-14-3-20-4-40-5-60-7-18-9-37-13-57,0-4-1-9-1-13-2-10-5-20-7-30,0-4-1-9-2-13v-5c-2-12-5-23-8-34,10,4,17,13,26,18,7,3,13,7,20,11,2,1,5,2,7,3,17,10,30,22,43,36,4,4,10,5,16,7,9,4,13,14,21,21,21,15,34,34,52,51,6,5,14,7,18,14,7,12,13,23,24,32,2,2,3,4,4,6,7,17,17,32,26,48,1,1,0,3,1,4,1,2,3,4,4,7,4,14,8,28,13,42,3,9,2,19,4,28,2-16,4-32,9-48,2-5,4-9,7-14,5-12,8-25,15-37,8-13,14-27,27-36,11-7,17-17,27-25,19-15,40-26,62-36,9-3,18-8,28-11,1,0,3,2,3,4-3,13-10,24-15,36-6,13-6,28-8,42,0,9-1,17-2,26,0,3,2,5,1,8-2,6-2,12,0,18,4,18,11,34,22,50s20,30,32,46c2,3,2,5,4,8,10,15,18,30,26,46,8,19,12,39,17,59,2,6,6,10,8,16,13,48,14,96,11,144,0,3-2,7-2,10-1,11-2,22-5,33-1,3-3,5-4,8-11,37-28,69-52,100-12,16-27,28-42,41-3,4-7,8-11,13-3,4-7,7-12,9l-3,3c-14,9-28,13-41,22-8,5-16,6-25,8-23,4-44,10-67,12-13,2-25,5-37,6h0Z"/></g><g id="QDx1ed-2"><path class="cls-2" d="m592.8,934.86c7-4,12-9,17-15,6-5,14-7,21-11,2-1,4-2,6-4,8-11,13-22,20-33,13-19,10-40,12-61,0-4,0-9,1-13,1-8,0-15-1-22-1-3-2-6-2-9,0-4-1-9-2-13-1-14-5-27-4-41,0-31,8-61,14-92-23,8-37,28-50,48l-6,6c-1,1-1,3-2,4-10,10-19,21-28,32,7-25,8-52-2-77-10-26-24-49-44-69-7-6-16-9-24-15s-15-12-23-17c-8-4-17-6-25-11,16,22,30,46,35,73-2,20-4,40-14,58-4,9-10,19-18,26,5-22,3-45-11-64-7-9-18-13-27-19,6,16,3,33-6,48-10,13-21,22-32,34-14,17-26,34-34,53-13,29-23,63-9,94,5,10,4,21,11,30,12,17,26,29,43,42l9,9c4,3,9,7,14,7,13-1,23,6,33,13,2,1,5,2,7,3,8,3,17,0,25,1,11,3,22,6,33,5,8-1,15-1,23-1,13,2,27,0,40,1h0Z"/></g></g><g><path class="cls-4" d="m881.87,877.89l-633.67,184.17c-34.21,9.94-69.99-9.73-79.94-43.93h0c-9.95-34.21,9.73-70.01,43.94-79.95l633.66-184.17c34.21-9.95,70,9.72,79.95,43.93h0c9.95,34.21-9.72,70-43.93,79.95Z"/><circle class="cls-6" cx="230.19" cy="1000.12" r="64.5"/></g></svg>