<?xml version="1.0" encoding="UTF-8"?><svg id="design" xmlns="http://www.w3.org/2000/svg" viewBox="0 0 1000 1150"><defs><style>.cls-1{fill:#f52021;}.cls-2{fill:#ff9d00;}.cls-3{fill:#863525;}.cls-4{fill:#9b3c2c;}.cls-5{fill:#722c20;}.cls-6{fill:#e8e8e8;opacity:.15;}</style></defs><g><path class="cls-5" d="m463.37,897.37l140.57,95.55c30.36,18.63,39.87,58.35,21.24,88.71h0c-18.63,30.37-58.36,39.87-88.72,21.24l-140.56-95.54c-30.36-18.63-39.87-58.35-21.24-88.71h0c18.63-30.36,58.35-39.87,88.71-21.24Z"/><circle class="cls-6" cx="570.2" cy="1047.89" r="64.5"/></g><g><path class="cls-3" d="m217.53,798.7l685.16,130.66c34.89,7.16,57.38,41.25,50.22,76.15h0c-7.16,34.9-41.25,57.39-76.15,50.23l-685.15-130.66c-34.9-7.16-57.39-41.25-50.23-76.15h0c7.16-34.9,41.25-57.39,76.15-50.23Z"/><circle class="cls-6" cx="889.73" cy="992.55" r="64.5"/></g><g><g id="QDx1ed"><path class="cls-1" d="m630,928.86c-8,2-15,4-23,6-7,1-13-3-20-2-11,3-22,4-33,5-22,1-45-4-67-3-4,0-9,1-13,0-18-5-35-8-53-13-13-5-26-11-39-15-6-2-11-6-16-9-9-4-18-7-27-10-8-4-15-10-23-15-22-15-40-31-57-51-7-8-10-18-14-28-7-19-15-37-21-57,1-14,3-28,2-43-1-5-2-9-3-14,0-2-1-5,0-7,4-8,6-17,7-26,1-13-2-26,0-40,3-13,7-25,9-38,0-8,1-15,2-23,1-6,4-12,5-18,1-24,1-49,1-73,0-8-3-15-4-23,0-2-1-3-2-5-1-4-1-8-2-12-3-8-5-15-7-23-5-22-10-43-15-65,11,8,20,18,30,27,1,1,3,1,4,2,16,17,31,33,46,52,1,1,3,2,4,3,7,8,13,15,18,23,3,6,6,11,10,17,12,17,20,33,30,51,2,5,5,9,9,14,2,3,3,5,4,8,0-5-1-10-2-15-1-12-3-23-3-35-14-26-16-54-22-84-1-5-3-9-5-14-1-3-1-7-2-10-1-1-2-3-2-4-2-12-5-23-6-35-2-15-5-30-10-44-4-13-5-26-6-40-1-6-3-13-4-19-1-12-1-24-1-36,0-16-4-32-5-48-1-18,2-36,1-54-1-7-2-13-2-20,3,0,6-1,8,0,3,1,6,5,9,8,1,2,2,4,4,5,1,1,2,1,3,2,4,5,9,9,14,13,1,2,2,4,4,5,1,1,2,1,3,2,1,2,2,4,4,5,7,4,13,8,17,14,8,12,16,20,25,29,4,4,9,4,14,6,1,1,3,2,5,3,10,10,20,18,32,26,1,2,3,3,5,5s2,4,4,6c21,19,38,40,60,58,1,2,3,3,5,5s2,4,4,6c11,10,17,22,26,35,1,1,0,3,1,4,3,4,6,8,8,13,4,13,11,24,17,36,1-14,1-28-1-42,3-7,4-14,7-21,2-7,3-15,5-22,3-6,4-11,7-17,9-16,18-31,32-43,38-32,79-56,128-63l1,2c-4,6-10,11-13,18-7,20-13,40-15,61l-3,9c-1,5,0,9,2,13,3,4,6,8,8,12,3,5,1,12,4,17,8,13,19,22,31,32,1,1,2,3,3,4,3,2,6,4,8,6,2,3,4,5,7,7,5,6,8,13,13,20,13,15,24,29,37,43,3,4,6,8,8,13,6,17,16,31,26,46,5,9,6,19,9,29,13,41,29,80,31,123,1,24-1,48-5,72-2,13-6,25-9,38-13,45-33,87-64,122-9,6-15,13-22,22-3,4-6,7-10,10-14,8-25,17-38,27-2,1-5,3-7,4s-2,3-4,4c-6,3-11,5-17,7-7,1-13,2-20,4-6,1-11,0-17,0-15,11-31,12-49,15-6,2-12,4-18,5h0Z"/></g><g id="QDx1ed-2"><path class="cls-2" d="m579,938.86c3-1,5-2,7-4,9-11,22-13,33-19,10-11,17-24,27-36,6-15,7-32,8-48,1-5,3-10,4-15,0-22,0-44,2-66,0-10,3-20,6-30,8-27,15-54,21-81-6,3-11,7-16,11-14,15-24,32-38,47-13,14-27,25-42,36,17-27,24-60,15-91-8-24-18-47-34-68-12-14-28-22-42-34-13-10-28-16-43-22,22,22,43,49,47,81-4,16-5,32-15,46-8,9-17,16-27,22,5-3,4-9,6-13v-4c5-12,1-25-3-36-1-2-2-5-3-7-8-12-20-17-32-24,7,13,3,28-6,39-6,6-12,11-19,16-10,6-19,11-28,18-8,7-15,14-22,22-25,26-40,60-45,95,1,20,7,39,11,60,2,5,5,10,8,14l6,6c8,12,17,22,28,31,6,10,16,18,29,20s20,14,32,19c6,2,13,2,19,2,11,2,21,8,33,9,6,0,12-1,18,0,18,3,34,3,52,5,1,0,2-1,3-1h0Z"/></g></g><g><path class="cls-4" d="m881.87,877.89l-633.67,184.17c-34.21,9.94-69.99-9.73-79.94-43.93h0c-9.95-34.21,9.73-70.01,43.94-79.95l633.66-184.17c34.21-9.95,70,9.72,79.95,43.93h0c9.95,34.21-9.72,70-43.93,79.95Z"/><circle class="cls-6" cx="230.19" cy="1000.12" r="64.5"/></g></svg>