<?xml version="1.0" encoding="UTF-8"?><svg id="design" xmlns="http://www.w3.org/2000/svg" viewBox="0 0 1000 1150"><defs><style>.cls-1{fill:#f52021;}.cls-2{fill:#ff9d00;}.cls-3{fill:#863525;}.cls-4{fill:#9b3c2c;}.cls-5{fill:#722c20;}.cls-6{fill:#e8e8e8;opacity:.15;}</style></defs><g><path class="cls-5" d="m463.37,897.37l140.57,95.55c30.36,18.63,39.87,58.35,21.24,88.71h0c-18.63,30.37-58.36,39.87-88.72,21.24l-140.56-95.54c-30.36-18.63-39.87-58.35-21.24-88.71h0c18.63-30.36,58.35-39.87,88.71-21.24Z"/><circle class="cls-6" cx="570.2" cy="1047.89" r="64.5"/></g><g><path class="cls-3" d="m217.53,798.7l685.16,130.66c34.89,7.16,57.38,41.25,50.22,76.15h0c-7.16,34.9-41.25,57.39-76.15,50.23l-685.15-130.66c-34.9-7.16-57.39-41.25-50.23-76.15h0c7.16-34.9,41.25-57.39,76.15-50.23Z"/><circle class="cls-6" cx="889.73" cy="992.55" r="64.5"/></g><g><g id="QDx1ed"><path class="cls-1" d="m547.56,944.13c-6.13-.02-14.14-1.92-23.13-2.65-7.23-.58-15.1-1.28-23.08-2.15s-15.49-2.05-22.99-3.03c-8.23-1.07-16.39-.1-23.28-1.16-10.5-1.63-18.59-4.62-22.59-5.73-7.85-2.18-15.53-4.84-23.23-7.34-7.74-2.52-14.74-6.95-22.32-9.81-7.61-2.87-15.46-4.94-22.89-8.18-7.45-3.25-14.59-7.01-21.84-10.65-7.25-3.64-15.46-5.5-22.51-9.55s-13.5-9.07-20.3-13.53-14.02-8.29-20.55-13.16-11.6-11.43-17.83-16.71c-6.59-5.58-12.25-11.75-18.12-17.55-6.13-6.07-14.35-9.96-19.7-16.26s-8.84-14.76-13.57-21.56-11.64-12.86-15.66-20.15c-4.11-7.46-7.87-15.27-11.08-23s-3.63-16.72-5.97-24.81-5.4-16.05-6.84-24.41-.4-16.83-.95-25.34c-.54-8.31-.22-16.61.05-25.16s-2.77-17-1.76-25.52,1.89-16.8,3.56-25.23c1.61-8.12,3.42-16.54,5.66-24.84,2.25-8.37,5.54-16.53,8.29-24.66s9.69-14.81,12.91-22.79,2.28-17.82,5.91-25.64c3.64-7.82,10.82-13.92,14.81-21.58s8.71-14.81,12.99-22.32,4.87-17.15,9.38-24.52,11.27-13.31,15.96-20.56c4.47-6.9,6.79-14.92,10.59-22.08s7.38-14.4,10.49-21.92,9.66-13.93,11.95-21.76c2.29-7.81.95-16.56,2.35-24.65,1.38-7.97.79-16.03,1.24-24.27.5-9.25.54-18.24-.22-27.55-.76-9.27-.48-19.75-1.06-28.99,7.86,4.02,14.58,11.54,21.49,16.36,7.21,5.03,15.81,7.92,21.96,13.75s12.68,12.12,17.86,18.91,8.71,15.02,12.74,22.64c4.01,7.58,7.76,15.37,10.53,23.61s3.76,16.65,5.26,25.28,3.31,16.76,3.6,25.56-1.3,16.94-2.11,25.73c-.78,8.38-.21,15.67-1.99,24.33,4.63-7.27,6.56-14.17,10.48-21.62s11.67-13.42,14.95-21.2,2.54-17.3,5.15-25.37c2.63-8.11,5.21-16.12,7.15-24.4s5.38-16.27,6.66-24.7,2.18-16.9,2.83-25.43-2.35-17.01-2.27-25.59,2.62-16.93,2.17-25.51c-.45-8.67-3.49-16.99-4.51-25.5-1.03-8.6-2-17.03-3.58-25.48-1.58-8.49-3.79-16.7-5.88-25.06-2.09-8.36-.03-17.89-2.6-26.13s-9.58-14.93-12.57-23.05c-2.97-8.05-3.05-17.27-6.42-25.25s-7.62-15.46-11.3-23.31c-3.64-7.76-5.82-15.42-9.78-23.15,3.74.86,4.48-1.17,5.76-.52,7.88,3.94,14.84,9.69,22.56,13.84,7.75,4.18,16.05,7.43,23.62,11.84s13.98,10.9,21.39,15.59c7.44,4.71,13.54,11.28,20.76,16.27s14.59,9.64,21.59,14.95c7,5.31,15.27,8.95,22.02,14.58,6.74,5.62,14.33,10.36,20.79,16.33s11.44,13.45,17.59,19.76c6.11,6.27,10.66,13.93,16.47,20.57s12.33,12.43,17.77,19.4c5.28,6.77,11.85,12.52,16.57,19.47,4.81,7.1,8.86,14.66,13.05,21.97,4.26,7.42,5.64,16.2,9.22,23.84,3.62,7.73,9.1,14.54,11.99,22.51,2.89,7.99,5.29,16.15,7.42,24.39s3.61,16.54,4.93,24.99c1.3,8.31,1.62,16.77,2.12,25.35.49,8.36-.25,16.75-.56,25.37-.29,8.34,1.24,15.8.18,24.4,3.28-7.32,7.06-12.93,10.09-20.05,3.13-7.34,4.88-15.13,8.11-22.2,3.29-7.21,6.5-14.39,10.28-21.26,3.79-6.87,9.15-12.87,13.26-19.61s7.55-13.84,12.06-20.29c4.54-6.48,10.47-11.74,15.52-17.75,5.04-6,10.18-11.8,15.72-17.45,5.52-5.62,10.09-12.16,16.02-17.34,5.96-5.2,13.42-8.35,19.72-13.02,6.25-4.63,11.3-10.93,18.06-14.88s13.04-8.69,19.95-12.37c6.9-3.67,15.11-4.39,21.87-8.24.57,1.04.98.43,1.55,1.47-2.15,8.35-3.25,17.05-5.49,25.38-2.23,8.34-8.03,15.74-10.16,24.11-2.12,8.37.06,17.73-1.75,26.17-1.72,8.01-4.91,15.64-6.05,23.71-1.15,8.11-.05,16.28-.46,24.43-.42,8.15-4.74,16.3-4.26,24.47.47,8.1,4.99,15.78,6.49,23.89,2.12,11.48,2.73,23.88,7.45,34.6,3.59,8.16,7.95,15.92,11.25,24.14,3.32,8.27,8.47,15.83,11.47,24.17s2.49,17.91,5.15,26.37c2.67,8.49,6.51,16.56,8.8,25.13,2.29,8.59,4.31,17.2,6.19,25.88,1.88,8.68,1.83,17.64,3.27,26.42,1.44,8.75,6.3,17.01,7.28,25.86.97,8.8-2.05,17.92-1.57,26.83.48,8.82,2.53,17.56,2.5,26.5-.03,8.53,1.53,16.97.99,25.16-.56,8.5-1.37,16.91-2.49,25.06-1.15,8.43-3.25,16.62-4.99,24.67-1.8,8.3-6.67,15.59-9.09,23.49-2.48,8.09-.61,17.65-3.74,25.32-3.18,7.81-8.44,14.76-12.29,22.14-3.89,7.44-6.99,15.47-11.56,22.47-4.56,7-12.55,11.57-17.79,18.13-5.19,6.5-9.81,13.43-15.65,19.51-5.74,5.97-11.38,12.14-17.76,17.7-6.22,5.43-14.21,8.68-21.04,13.72-6.63,4.9-12.09,11.56-19.28,16.09-6.96,4.39-13.82,9.29-21.3,13.34-7.23,3.91-15.2,6.72-22.92,10.32-2.62,1.22-11.24,3.45-23.37,5.27-7.03,1.05-15.29,1.14-23.99,2.23-7.67.96-15.62,3.1-23.77,4-8.06.89-16.3.39-24.09,1.13-8.55.82-16.74.83-24.02,1.38-10.17.76-18.5,4.25-23.92,4.23Z"/></g><g id="QDx1ed-2"><path class="cls-2" d="m607.58,928.59c8.35-4.46,13.4-13.65,20.31-18.93,7.46-5.7,16.69-8.9,22.49-15.51,6.08-6.93,8.9-15.98,13.17-23.87s9.72-15.4,12.18-24.25c2.37-8.5,3.44-17.62,4.14-26.94.66-8.71-.36-17.74-1.15-27.13-.79-9.37.48-19.21-1.24-28.61-1.71-9.33-4.74-18.56-7.36-27.66-2.65-9.19-5.5-18.42-9.07-27.12-3.83-9.34-6.13-18.27-7.67-27.38-1.61-9.6-1.72-18.75-1.08-28.33.63-9.37,1.01-18.76,3.52-28.35,1.74-6.66,3.73-13.96,5.63-20.66-7.49.39-15.96,3.59-23.81,8.7-6.18,4.02-12.1,9.82-18.35,16.61-5.14,5.58-8.98,12.93-14.08,20.3-4.41,6.37-10.1,12.46-14.43,20.12-3.87,6.84-7.69,13.13-11.46,20.96-.02-8.58-.62-15.8-1.71-23.54-1.19-8.44-2.99-16.43-5.33-23.96-2.5-8.03-5.61-15.6-9.27-22.72-3.79-7.36-10.24-12.73-15.11-19.25-4.89-6.54-8.64-13.83-14.46-19.65-5.73-5.73-10.38-12.93-16.85-18.09s-14.53-7.77-21.41-12.38-12.87-10.11-19.98-14.33c-6.98-4.14-13.15-6.09-20.38-10.05,3.53,7.7,5.26,14.14,8.19,21.93,2.98,7.92,5.85,15.82,8.02,23.87,2.2,8.14,5.29,16.17,6.47,24.47,1.18,8.28-1.64,16.84-1.66,25.31-.02,8.26-.85,16.27-2.18,24.74-1.36,8.6-2.54,17.03-5.42,25.44s-4.67,15.46-8.17,23.67c.75-9.04-2.28-15.81-3.69-23.64-1.55-8.58-3.01-16.37-7.08-23.68-4-7.18-6.75-15.86-13.09-22.01-5.73-5.55-14.19-9.64-21.76-14.49,1.75,8.64,3.41,17.33,2.98,25.16-.47,8.47-1.53,16.92-3.97,24.7-2.46,7.85-6.75,15.19-10.59,22.6s-9.16,13.66-13.64,20.73c-4,6.32-5.85,13.83-9.24,20.43-3.41,6.64-7.04,13.06-9.72,20.01-2.67,6.93-5.25,13.86-7.08,21.12s-3.42,14.4-4.3,21.89c-1.17,9.91-2.62,19.52-1.6,28.54,1.09,9.66,7.16,17.7,10.67,26.4s5.12,18.38,10.93,26.15c5.47,7.31,13.85,12.33,21.28,18.87,5.66,4.98,12.26,9.92,20.38,14.57,6.91,3.95,12.81,11.53,21.1,14.91,7.57,3.09,17.32.97,25.75,3.33,7.99,2.24,15.21,9.12,23.73,10.5,8.27,1.35,17.19-1.08,25.75-.73,5.79.24,13.73,2.61,22.51,2.36,7.15-.2,14.79-2.81,22.4-3.25s15.64-.02,22.51-.66c10.01-.93,19.19-.11,23.25-1.21Z"/></g></g><g><path class="cls-4" d="m881.87,877.89l-633.67,184.17c-34.21,9.94-69.99-9.73-79.94-43.93h0c-9.95-34.21,9.73-70.01,43.94-79.95l633.66-184.17c34.21-9.95,70,9.72,79.95,43.93h0c9.95,34.21-9.72,70-43.93,79.95Z"/><circle class="cls-6" cx="230.19" cy="1000.12" r="64.5"/></g></svg>