<?xml version="1.0" encoding="UTF-8"?><svg id="design" xmlns="http://www.w3.org/2000/svg" viewBox="0 0 1000 1150"><defs><style>.cls-1{fill:#f52021;}.cls-2{fill:#ff9d00;}.cls-3{fill:#863525;}.cls-4{fill:#9b3c2c;}.cls-5{fill:#722c20;}.cls-6{fill:#e8e8e8;opacity:.15;}</style></defs><g><path class="cls-5" d="m463.37,897.37l140.57,95.55c30.36,18.63,39.87,58.35,21.24,88.71h0c-18.63,30.37-58.36,39.87-88.72,21.24l-140.56-95.54c-30.36-18.63-39.87-58.35-21.24-88.71h0c18.63-30.36,58.35-39.87,88.71-21.24Z"/><circle class="cls-6" cx="570.2" cy="1047.89" r="64.5"/></g><g><path class="cls-3" d="m217.53,798.7l685.16,130.66c34.89,7.16,57.38,41.25,50.22,76.15h0c-7.16,34.9-41.25,57.39-76.15,50.23l-685.15-130.66c-34.9-7.16-57.39-41.25-50.23-76.15h0c7.16-34.9,41.25-57.39,76.15-50.23Z"/><circle class="cls-6" cx="889.73" cy="992.55" r="64.5"/></g><g><g id="QDx1ed"><path class="cls-1" d="m463.8,939.86c-8-2-15-1-23-3-7-2-13-7-20-9-17-4-33-8-49-14-22-9-40-23-63-29-15-11-29-23-45-32-13-13-27-25-40-39-10-12-21-22-30-34-30-40-51-82-60-129,0-27-2-54-1-81,0-3,2-7,2-10,0-10,1-20,5-30,10-29,20-58,36-86,8-14,20-24,27-39,10-9,15-22,24-32,6-7,12-12,19-18,1-1,2-3,3-4l21-15c9-9,19-17,30-25,6-3,11-6,17-10,2-1,4-1,5-2,2-2,4-3,7-5,13-11,25-20,39-30l3-3c10-5,16-15,21-25,4-8,4-17,6-26,1-7,1-15,0-22-1-6-3-11-3-17,17,10,31,23,47,34,19,21,34,46,40,74-1,16-2,33-11,48-8,12-16,22-25,33,13-6,25-12,38-16,4-1,7-3,10-6,9-10,17-19,25-28,6-7,14-11,18-19,8-22,14-45,17-68-4-16-7-31-9-48l-3-9c0-1-1-3-2-4,0-2,0-3-1-5-7-12-9-26-14-39-18-26-37-50-59-74-9-9-19-15-29-22,4,0,8-1,11,0,25,9,48,21,72,34,14,8,26,17,40,26,19,13,33,27,47,43,12,13,24,26,37,37,14,20,28,39,39,60,8,15,13,30,19,45,5,15,9,29,12,45,4,29,8,57,4,86-4,23-10,45-22,66-8,15-19,28-28,43,7-5,14-9,21-15,11-10,19-24,32-31,32-31,58-65,91-96,19-19,35-38,53-58,7-7,14-12,20-19,0,1,1,2,1,3-4,24-9,45-15,68-6,27-13,53-26,78-2,4-5,9-6,14-3,20-7,37-15,55-2,19,0,39,0,58,1,7-2,14-2,21-2,16,2,33,1,49,0,8-4,15-4,23-1,8,4,16,1,24-7,25-9,51-10,77,0,10-2,20-7,29s-7,18-10,28c-2,7-9,11-13,17-2,4-5,7-6,12-1,2-2,3-4,5-1,1,0,2-1,3-9,10-15,20-24,30-12,11-23,22-37,30-12,7-24,9-35,18-3,2-7,3-11,5-6,2-12,1-18,3-12,5-24,10-37,13-25,4-49-2-73-6-15,4-30,0-46-3-8-1-16-1-24-2h0Z"/></g><g id="QDx1ed-2"><path class="cls-2" d="m634.8,913.86c2-1,4-3,6-5,5-7,10-13,15-20,6-7,15-11,20-19,10-19,17-39,21-60,4-25-1-49-9-73-1-4-1-7-2-11-5-14-11-27-20-40-1-2-3-2-4-4-3-5-6-9-9-14-15-18-33-33-36-57-2-14,4-26,12-37-22,1-44,10-59,27-2,2-3,5-5,7-10,17-22,34-20,54l-3-3c-8-15-18-29-29-42-3-2-4-5-7-7-4-3-8-5-12-7-6-5-10-11-15-17-2-1-4-2-5-4-3-4-5-7-8-10-5-4-12-4-17-8-8-10-16-17-25-25-2,28-2,57,5,85-1,16,2,32,5,48,5,23,12,44,17,66-2-6-7-9-11-14-14-19-24-37-39-54-6-6-14-10-20-16,9,36,20,74,9,112-1,5,1,10,0,15-6,24-7,47-6,71,0,2,1,5,2,7,4,7,11,13,15,20,3,6,5,13,10,17,17,12,34,19,53,26,5,3,9,7,15,8,10,1,19-3,29-2,6,1,12,5,18,5,17,0,34-7,51-6,5-3,11-4,17-7,13-4,27-4,41-6h0Z"/></g></g><g><path class="cls-4" d="m881.87,877.89l-633.67,184.17c-34.21,9.94-69.99-9.73-79.94-43.93h0c-9.95-34.21,9.73-70.01,43.94-79.95l633.66-184.17c34.21-9.95,70,9.72,79.95,43.93h0c9.95,34.21-9.72,70-43.93,79.95Z"/><circle class="cls-6" cx="230.19" cy="1000.12" r="64.5"/></g></svg>