<?xml version="1.0" encoding="UTF-8"?><svg id="design" xmlns="http://www.w3.org/2000/svg" viewBox="0 0 1000 1150"><defs><style>.cls-1{fill:#f52021;}.cls-2{fill:#ff9d00;}.cls-3{fill:#863525;}.cls-4{fill:#9b3c2c;}.cls-5{fill:#722c20;}.cls-6{fill:#e8e8e8;opacity:.15;}</style></defs><g><path class="cls-5" d="m463.37,897.37l140.57,95.55c30.36,18.63,39.87,58.35,21.24,88.71h0c-18.63,30.37-58.36,39.87-88.72,21.24l-140.56-95.54c-30.36-18.63-39.87-58.35-21.24-88.71h0c18.63-30.36,58.35-39.87,88.71-21.24Z"/><circle class="cls-6" cx="570.2" cy="1047.89" r="64.5"/></g><g><path class="cls-3" d="m217.53,798.7l685.16,130.66c34.89,7.16,57.38,41.25,50.22,76.15h0c-7.16,34.9-41.25,57.39-76.15,50.23l-685.15-130.66c-34.9-7.16-57.39-41.25-50.23-76.15h0c7.16-34.9,41.25-57.39,76.15-50.23Z"/><circle class="cls-6" cx="889.73" cy="992.55" r="64.5"/></g><g><g id="QDx1ed"><path class="cls-1" d="m506.26,945.86c-18-3-37-4-55-10-19-7-39-16-59-15-15-6-29-13-44-18-5-2-10-5-15-8l-3-3c-31-17-56-37-85-59-25-19-43-42-58-68-6-11-11-21-17-31-2-4-5-8-6-13-3-15-7-29-13-43-3-11-1-22-2-33-1-4-1-9-2-13-2-16,0-32,2-48,3-17,6-33,11-49,4-12,11-23,16-35,8-24,21-46,34-68,20-24,39-47,61-70,2-2,3-5,5-8,3-4,7-6,10-10,4-5,8-10,13-15,9-11,16-21,26-31,2-2,4-4,5-7,4-13,5-27,13-39,2-18-3-37-3-55,23,14,44,30,64,49,3,3,4,7,6,10,4,12,9,23,15,34,1,3,3,7,3,10,0,11-3,21-4,32-2,20-5,40-16,57,4-2,6-5,9-8,7-9,16-15,24-23,10-11,16-24,26-35,6-8,9-17,11-26,0-1,2-2,2-3,14-38,8-78,4-118-2-12-8-22-12-33-2-6-1-12-3-17-9-20-22-37-36-55-3-5-6-10-10-15-6-9-10-19-17-27,2,1,4,0,6,1,20,12,40,19,61,30,7,4,14,9,21,14,2,1,3,1,5,2,7,5,14,9,21,14,17,13,32,24,48,37,14,13,25,26,37,41,15,19,26,37,38,57,9,14,16,28,22,42,9,19,13,38,17,58,4,28-1,55,0,83-5,17-11,33-16,50,6-7,8-16,14-23,8-7,15-15,20-24,5-11,14-19,22-28,1-1,1-3,2-4,12-13,20-26,29-41,4-5,9-10,13-15,14-15,26-31,44-40,6-3,12-5,15-9,10-13,21-20,34-27-2,2-2,5-2,7,1,17-4,33-8,49-6,21-9,40-14,61-3,9-8,18-9,27-2,25-4,49,0,74,2,14,4,27,7,42,1,6-2,12-1,18,2,7,3,14,6,20,4,8,4,16,4,24,3,25,5,49,3,73,0,12,3,24,1,36-4,18-2,34-4,51-1,12-5,21-12,31-1,2-2,5-2,7,0,8,0,15-3,22-1,2-2,4-3,7-1,2-3,4-4,6-1,1,0,3-1,4-13,20-25,37-38,57-6,8-17,10-23,18-9,12-21,20-34,27-2,1-4,3-6,5-13,10-29,11-43,16-6,3-10,10-17,11-15,3-29,1-43,2-13,2-26,0-39,1-5,1-10,3-15,4h-9c-15-3-29-1-44-1h0Z"/></g><g id="QDx1ed-2"><path class="cls-2" d="m621.26,919.86c1-1,3-1,4-2,12-12,23-22,36-32,18-24,27-53,29-83,2-21-3-42-12-61-4-11-6-23-11-34-6-13-17-24-22-37-5-15-12-29-10-45,2-13,7-25,9-38-37,2-65,33-74,68,0,1-2,2-2,3-2,5-3,11-4,16-2-17-7-32-16-47-2-2-3-4-5-7-3-4-6-7-9-11-4-5-10-8-14-13-7-11-16-18-24-27-7-7-17-8-26-13-4-3-6-7-9-11-7-7-16-10-24-16,2,7,4,14,5,21,6,25,7,48,11,73,3,21,1,41,2,62,1,11-1,22-3,33-1-37-28-65-56-86,3,12,7,24,5,37-4,16-3,30-8,45-4,9-8,17-11,26-5,17-7,34-12,51,0,18-6,36,2,53,9,21,22,39,38,56,7,6,17,6,26,9,2,1,4,2,7,3s5,3,7,4c9,4,19,6,28,10,17,6,36,3,54,5,2,0,5-2,7-1,8,2,16,2,23-1,6-1,12-5,18-6,6,0,11-1,17-1,8-1,16-1,24-3h0Z"/></g></g><g><path class="cls-4" d="m881.87,877.89l-633.67,184.17c-34.21,9.94-69.99-9.73-79.94-43.93h0c-9.95-34.21,9.73-70.01,43.94-79.95l633.66-184.17c34.21-9.95,70,9.72,79.95,43.93h0c9.95,34.21-9.72,70-43.93,79.95Z"/><circle class="cls-6" cx="230.19" cy="1000.12" r="64.5"/></g></svg>